<svg xmlns="http://www.w3.org/2000/svg" version="1.0" viewBox="0 0 177.54 184.65">
<defs>
<radialGradient id="a" cx="191.85" cy="191.79" r="109.16" gradientTransform="matrix(-.0531 .87269 -.60077 -.03656 599.44 -35.24)" gradientUnits="userSpaceOnUse">
<stop offset="0" stop-color="#faed21"/>
<stop offset="1" stop-color="#faed21" stop-opacity="0"/>
</radialGradient>
<linearGradient id="b" x1="355.05" x2="324.76" y1="230.75" y2="593.93" gradientTransform="translate(366.17 -.751) scale(.27544)" gradientUnits="userSpaceOnUse">
<stop offset="0" stop-color="#fff" stop-opacity=".374"/>
<stop offset="1" stop-color="#fff" stop-opacity="0"/>
</linearGradient></defs><g fill-rule="evenodd">
<path stroke="#000" stroke-width=".551" d="M100.69 30.608c-5-7.182-17-9.496-20.89-4.197-20.42 27.807-54.53 107.3-52.6 107.52-1.44 4.15-4.67 12.97-1.8 18.2 9.26 10.56 16.66 14.43 30.47 10.64l95.66-24.65c9.05-3.36 9.55-13.74 5.64-20.04-14.86-23.98-38.43-61.524-56.48-87.468z"/>
<path fill="url(#a)" d="M467.08 65.408c-18.59 33.512-31.91 67.022-46.07 100.53-1.3 2.6-1.63 6.89-.39 8.61 1.23 1.72 5.75 2.08 9.83 1.22l90.58-21.66c3.1-.74 6.26-1.78 7.01-3.57.75-1.8-1.1-4.79-2.51-7.18-15.37-24.97-31.15-50.366-49.27-78.091-1.52-2.414-3.35-3.891-4.97-3.815-1.61.076-3.14 1.852-4.21 3.954z" transform="translate(-375.36 -24.194)"/>
<g fill="#7b751a">
<path d="M104.152 59.245c-4.03 1.49-9.39 2.097-16.206 1.733 4.504 15.574 6.985 32.538 7.817 48.112 3.477.468 6.481 0 9.027-1.385 1.151-15.574 1.913-31.97-.638-48.46zM102.185 114.754c-3.493-.563-6.86 2.157-7.503 6.053-.648 3.901 1.669 7.518 5.166 8.076 3.492.563 6.845-2.142 7.488-6.043.648-3.896-1.654-7.523-5.151-8.086z"/>
</g>
<path fill="#fff" d="M106.15 61.238c-4.03 1.49-9.39 2.097-16.21 1.733 4.51 15.575 6.99 32.535 7.82 48.115 3.48.47 6.48 0 9.03-1.39 1.15-15.57 1.91-31.97-.64-48.458zM104.18 116.746c-3.49-.56-6.86 2.16-7.5 6.06-.65 3.89 1.67 7.51 5.16 8.07 3.5.56 6.85-2.14 7.49-6.04.65-3.9-1.65-7.53-5.15-8.09z"/>
<path fill="url(#b)" d="M468.7 71.534c-15.89 30.836-28.73 61.676-41.95 92.506-1.07 2.15-2.74 5.57-1.72 6.99s1.95 1.09 5.33.37l28.54-7.18c-3.59-26.54-1.93-65.247 27.62-76.024L476.3 71.419c-1.26-1.997-2.78-3.218-4.11-3.155-1.34.063-2.6 1.532-3.49 3.27z" transform="translate(-375.36 -24.194)"/>
</g>
</svg>